<svg width="423" height="506" viewBox="0 0 423 506" fill="none" xmlns="http://www.w3.org/2000/svg">
<g clip-path="url(#clip0)">
<path d="M2.49997 464.49C3.49997 460.87 4.49997 457.21 6.49997 454.06C8.35447 451.389 10.5573 448.978 13.05 446.89C20.3 440.31 29.2 433.63 38.81 435.29C41.7822 435.947 44.6539 436.997 47.35 438.41C48.75 439.06 50.16 439.71 51.6 440.26C55.6536 441.955 60.1339 442.346 64.42 441.38C66.62 440.79 68.67 439.73 70.84 439.07C71.8703 438.76 72.9236 438.533 73.99 438.39C71.8933 437.451 69.8591 436.379 67.9 435.18C57.12 428.58 48.52 416.65 49.72 403.89C50.13 399.6 51.6 395.49 53.06 391.44L56.9 380.82C58.56 376.22 60.28 371.53 63.31 367.71C66.68 363.45 71.48 360.56 76.44 358.41C87.09 353.78 98.73 352.15 110.22 350.57L111.02 350.46V226.33C111.02 224.208 111.863 222.173 113.363 220.673C114.863 219.173 116.898 218.33 119.02 218.33H134.12C134.787 214.25 135.453 210.177 136.12 206.11C138.02 194.5 139.99 182.68 145.34 172.23C148.84 165.39 154.41 158.86 161.92 157.52C163.396 157.387 164.846 157.05 166.23 156.52C168.43 155.44 169.63 153.04 171.32 151.27C175.68 146.7 182.77 146.63 188.61 144.27C193.77 142.22 197.99 138.36 202.69 135.39C207.39 132.42 213.23 130.31 218.43 132.24C218.43 132.62 218.5 133 218.54 133.37L221.88 131.83C225.48 130.16 229.15 128.45 232.04 125.71C235.75 122.21 237.73 117.57 239.27 112.64C239.43 112.13 239.58 111.64 239.74 111.09C233.348 104.569 229.021 96.3077 227.3 87.34L226.49 89.97C226.308 90.5609 226.094 91.1417 225.85 91.71C225.437 92.8089 224.748 93.7834 223.85 94.54C223.594 94.7411 223.311 94.906 223.01 95.03C222.734 95.1395 222.445 95.2134 222.15 95.25C221.735 95.3013 221.313 95.2708 220.91 95.16C220.234 94.9506 219.613 94.5922 219.094 94.111C218.575 93.6299 218.17 93.0383 217.91 92.38C217.751 91.9868 217.633 91.5779 217.56 91.16C217.521 90.9083 217.498 90.6545 217.49 90.4C217.49 90.32 217.49 90.24 217.49 90.16C217.49 90.08 217.49 89.81 217.49 89.64C217.49 89.47 217.49 89.46 217.49 89.36C217.49 89.26 217.49 89.03 217.54 88.86V88.6C217.54 88.4 217.6 88.2 217.64 88.01C217.68 87.82 217.64 87.9 217.64 87.85C217.69 87.6 217.75 87.34 217.8 87.09C217.8 87.03 217.8 86.96 217.8 86.9C217.8 86.84 217.89 86.49 217.94 86.28C217.99 86.07 218.01 86.01 218.04 85.87V85.81C218.14 85.41 218.23 85.02 218.32 84.62C219.047 81.1494 219.232 77.5873 218.87 74.06C218.271 68.8835 217.316 63.7546 216.01 58.71L215.8 57.8C215.72 57.45 215.64 57.1 215.57 56.74C215.41 56.02 215.25 55.3 215.1 54.57L214.74 52.73L214.47 51.09V50.88C213.909 47.1638 213.791 43.394 214.12 39.65V39.65C214.58 34.42 216.2 29.47 219.75 25.53C222.26 22.74 225.57 20.68 227.9 17.75C230.08 15.01 231.31 11.63 233.57 8.93999C239.81 1.48999 255.83 -4.25001 265.66 -5.25001C276.92 -6.39001 295.11 -3.51003 304.19 3.13997C307.55 5.58997 309.85 9.13999 312.19 12.5C316.49 18.75 321.37 24.99 328.26 28.5C330.86 29.82 333.84 30.82 335.57 33.12C336.599 34.6791 337.266 36.4492 337.52 38.3C338.845 44.8112 339.535 51.4355 339.58 58.08V58.08C339.58 58.91 339.58 59.74 339.58 60.58C339.559 63.0712 339.029 65.5319 338.02 67.81C337.86 68.15 337.68 68.48 337.49 68.81L337.37 69.02C336.16 70.7489 335.09 72.5713 334.17 74.47C333.941 75.0017 333.776 75.559 333.68 76.13C333.509 77.5949 333.604 79.0788 333.96 80.51V80.51C333.96 80.73 334.05 80.95 334.09 81.17L334.18 81.6C334.18 81.75 334.18 81.9 334.26 82.04C334.34 82.47 334.41 82.9 334.47 83.32C334.622 84.4767 334.547 85.6518 334.25 86.78C334.113 87.4086 333.844 88.0009 333.462 88.5181C333.079 89.0352 332.591 89.4653 332.03 89.78C331.46 90.0531 330.854 90.2418 330.23 90.34C329.6 90.45 328.96 90.52 328.34 90.66C327.543 90.8417 326.773 91.1275 326.05 91.51C325.358 91.8413 324.709 92.2579 324.12 92.75C323.828 93.0149 323.551 93.2953 323.29 93.59C322.762 94.1947 322.287 94.8438 321.87 95.53C321.657 95.8833 321.457 96.2433 321.27 96.61C320.553 98.057 319.981 99.571 319.56 101.13C319.3 102.06 319.08 103 318.89 103.94C318.8 104.36 318.72 104.78 318.65 105.19C318.58 105.6 318.51 106.02 318.45 106.43C318.177 106.414 317.908 106.361 317.65 106.27C316.18 105.74 315.36 104.03 314.9 102.37C314.82 102.09 314.75 101.82 314.69 101.55C314.46 100.55 314.22 99.45 313.99 98.4C310.048 106.771 303.692 113.771 295.74 118.5C295.46 119.33 295.19 120.15 294.95 120.99C293.64 125.52 293.01 130.26 295.28 134.22C296.9 137.03 299.62 138.76 302.66 139.96C303.098 139.376 303.662 138.897 304.31 138.56C306.94 137.24 310.1 138.84 312.31 140.81C316.31 144.43 319.57 149.62 324.83 150.81C326.73 151.25 328.83 151.16 330.41 152.32C331.455 153.303 332.33 154.452 333 155.72C334.141 157.359 335.676 158.685 337.464 159.576C339.251 160.467 341.234 160.895 343.23 160.82C345.06 160.73 347.23 160.31 348.48 161.65C349.41 162.65 349.48 164.23 350.48 165.18C351.82 166.5 354.02 165.86 355.89 165.78C359.45 165.63 362.76 167.93 364.79 170.88C366.82 173.83 367.79 177.36 368.79 180.88V180.94C369.047 181.127 369.29 181.331 369.52 181.55C370.49 182.583 371.241 183.8 371.73 185.13C379.817 203.542 384.59 223.238 385.83 243.31C385.81 244.288 386.03 245.256 386.47 246.13C386.917 246.701 387.409 247.236 387.94 247.73C388.415 248.312 388.769 248.983 388.98 249.704C389.19 250.425 389.254 251.181 389.168 251.927C389.081 252.673 388.845 253.394 388.475 254.047C388.104 254.701 387.606 255.273 387.01 255.73C386.722 255.208 386.362 254.73 385.94 254.31C386.05 254.77 386.15 255.22 386.22 255.63C386.622 258.547 386.659 261.503 386.33 264.43C385.383 278.323 384.427 292.207 383.46 306.08C383.19 310.01 382.92 313.93 382.56 317.85C381.86 325.437 380.86 332.993 379.56 340.52C379.5 340.86 379.43 341.21 379.34 341.52C387.49 344.11 394.74 348.79 397.79 356.6C398.85 359.3 399.33 362.24 400.63 364.83C402.06 367.67 404.41 369.94 405.97 372.72C408.66 377.5 408.78 383.36 407.8 388.72C405.91 399.17 400.26 408.51 392.8 416.11C393.13 416.11 393.47 416.11 393.8 416.11C396.237 416.38 398.577 417.219 400.63 418.56C416.41 427.78 425.43 447.56 422.14 465.62C421.49 469.15 420.36 472.73 418 475.42C416.038 477.558 413.516 479.104 410.72 479.88C408.971 480.406 407.171 480.741 405.35 480.88C393.05 481.88 381.14 476.18 368.81 475.7C364.725 475.635 360.641 475.825 356.58 476.27C350.64 476.763 344.69 477.077 338.73 477.21C329.04 477.44 323.59 474.86 317.41 467.62C315.891 465.819 314.623 463.821 313.64 461.68C308.38 461.38 302.57 460.92 298.37 460.58L298.31 461.16C298.08 463.16 297.73 465.46 296.13 466.72C295.23 467.341 294.207 467.76 293.13 467.95C283.03 470.43 272.81 472.95 262.41 472.95C257.529 472.851 252.658 472.478 247.82 471.83L229.55 469.72C224.226 470.395 218.972 471.539 213.85 473.14C208.57 474.93 203.64 477.59 198.48 479.7C186.48 484.56 173.58 486.3 160.8 488C158.62 488.29 156.12 488.49 154.51 487C152.43 485 153.12 481.66 153.71 478.86C153.95 477.71 154.13 476.56 154.27 475.4C145.646 477.673 137.208 480.602 129.03 484.16L127.6 484.79C127.18 486.97 125.17 488.71 123.24 491.06C122.606 492.052 121.865 492.971 121.03 493.8C120.075 494.42 118.99 494.81 117.86 494.94C104.369 497.454 90.593 498.076 76.93 496.79C74.1336 496.409 71.3059 496.312 68.49 496.5C66.4213 496.782 64.3805 497.24 62.39 497.87L50.82 501.19C42.29 503.63 33.56 506.1 24.71 505.55C22.9155 505.437 21.133 505.18 19.38 504.78C12.38 503.16 5.85997 499.25 2.49997 492.96C-2.25003 484.41 -0.0600305 473.89 2.49997 464.49Z" fill="url(#paint0_linear)"/>
<path d="M326.21 462.54C328.32 457.74 330.32 452.22 328.21 447.42C326.833 444.593 324.467 442.37 321.56 441.17C318.684 439.997 315.652 439.249 312.56 438.95C302.856 437.677 293.036 437.543 283.3 438.55C282.59 444.17 284.09 449.87 285.38 455.3C286.55 460.3 287.22 461.04 292.38 461.3C295.72 461.48 325.42 464.31 326.21 462.54Z" fill="#FBBEBE"/>
<path d="M237.16 430.16C158.183 430.16 94.16 412.251 94.16 390.16C94.16 368.069 158.183 350.16 237.16 350.16C316.137 350.16 380.16 368.069 380.16 390.16C380.16 412.251 316.137 430.16 237.16 430.16Z" fill="#464353"/>
<path opacity="0.1" d="M237.16 430.16C158.183 430.16 94.16 412.251 94.16 390.16C94.16 368.069 158.183 350.16 237.16 350.16C316.137 350.16 380.16 368.069 380.16 390.16C380.16 412.251 316.137 430.16 237.16 430.16Z" fill="black"/>
<path d="M211.52 179C216.422 188.472 224.563 195.867 234.46 199.84C240.303 201.969 246.453 203.138 252.67 203.3C259.46 203.61 266.39 203.17 272.77 200.85C281.33 197.75 288.44 191.41 293.77 184.02C299.1 176.63 302.77 168.19 305.96 159.68C307.64 155.25 309.24 150.53 308.45 145.85C303.3 144.68 297.66 142.96 295 138.39C292.73 134.47 293.36 129.77 294.67 125.29C295.04 124.02 295.47 122.76 295.9 121.55C296.9 118.65 300.35 113.14 297.9 110.66C296.37 109.09 289.96 108.29 287.75 107.27C280.94 104.13 274.66 99.59 267.18 98.1C260.71 96.81 254.03 98.02 247.57 99.36C246.713 99.4846 245.89 99.7805 245.15 100.23C244.306 100.941 243.682 101.878 243.35 102.93C241.51 107.41 240.43 112.36 238.95 117.03C237.41 121.92 235.43 126.51 231.72 129.98C228.83 132.69 225.15 134.39 221.55 136.04L212.69 140.1C211.114 140.69 209.685 141.615 208.5 142.81C207.341 144.403 206.649 146.286 206.5 148.25C204.912 158.773 206.668 169.528 211.52 179V179Z" fill="#FBBEBE"/>
<path opacity="0.1" d="M238.99 117.03C246.045 124.376 255.339 129.172 265.414 130.667C275.489 132.162 285.776 130.271 294.66 125.29C295.03 124.02 295.46 122.76 295.89 121.55C296.89 118.65 300.34 113.14 297.89 110.66C296.36 109.09 289.95 108.29 287.74 107.27C280.93 104.13 274.65 99.59 267.17 98.1C260.7 96.81 254.02 98.02 247.56 99.36C246.703 99.4846 245.88 99.7805 245.14 100.23C244.296 100.941 243.672 101.878 243.34 102.93C241.55 107.41 240.47 112.36 238.99 117.03Z" fill="black"/>
<path d="M272.16 129.16C246.755 129.16 226.16 108.565 226.16 83.16C226.16 57.7549 246.755 37.16 272.16 37.16C297.565 37.16 318.16 57.7549 318.16 83.16C318.16 108.565 297.565 129.16 272.16 129.16Z" fill="#FBBEBE"/>
<path d="M132.01 232.45L135.79 209.55C137.7 198.06 139.67 186.35 145.01 176C148.52 169.22 154.09 162.76 161.6 161.42C163.079 161.288 164.533 160.952 165.92 160.42C168.12 159.36 169.32 156.98 171.01 155.22C175.37 150.7 182.47 150.63 188.31 148.33C193.47 146.33 197.69 142.48 202.39 139.54C207.09 136.6 212.94 134.54 218.14 136.42C218.98 145.37 219.87 154.52 223.67 162.67C226.143 167.976 229.771 172.662 234.288 176.385C238.806 180.108 244.098 182.775 249.778 184.189C255.459 185.604 261.383 185.731 267.119 184.562C272.855 183.392 278.257 180.956 282.93 177.43C291.84 170.72 297.55 160.37 300.21 149.54C300.86 146.9 301.6 143.87 304.03 142.66C306.66 141.34 309.82 142.94 312.03 144.88C316.03 148.47 319.3 153.61 324.56 154.82C326.46 155.26 328.56 155.17 330.14 156.32C331.19 157.289 332.069 158.428 332.74 159.69C333.891 161.316 335.429 162.631 337.215 163.514C339.001 164.397 340.979 164.822 342.97 164.75C344.8 164.66 346.97 164.24 348.22 165.57C349.15 166.57 349.22 168.13 350.22 169.06C351.57 170.37 353.76 169.73 355.64 169.66C359.2 169.51 362.51 171.79 364.55 174.66C366.59 177.53 367.55 181.08 368.55 184.52C357.62 208.86 347.62 233.23 336.69 257.57C336.178 258.487 335.906 259.519 335.9 260.57C336.119 261.66 336.584 262.686 337.26 263.57C342.62 272.18 342.45 283.01 341.86 293.13C341.27 303.25 340.55 313.94 345.07 323.01C346.3 325.5 347.9 327.78 349.07 330.27C351.81 335.91 352.8 353.95 351.2 360.01H125.12C129.43 348.16 127.79 324.38 126.89 311.8C126.26 303 127.89 294.21 128.59 285.41C130.12 267.44 129.04 250.39 132.01 232.45Z" fill="#00B0FF"/>
<path d="M385.87 258.65C386.27 261.544 386.31 264.476 385.99 267.38L383.12 308.65C382.85 312.54 382.58 316.42 382.22 320.3C381.53 327.83 380.5 335.3 379.22 342.76C379.191 343.819 378.743 344.824 377.975 345.553C377.206 346.282 376.179 346.677 375.12 346.65C362.47 349.33 349.4 349.22 336.49 348.49C316.79 347.39 297.12 344.88 277.39 345.31C272.31 345.42 266.39 345.31 263.31 341.31C260.23 337.31 262.02 330.84 266.04 327.61C270.06 324.38 275.52 323.61 280.68 323.61C287.51 323.54 294.34 324.51 301.15 324.11C307.4 323.74 313.51 322.23 319.57 320.72L336.57 316.49C335.92 311.34 333.96 306.49 332.1 301.6C328.76 292.93 325.64 283.97 325.58 274.68C325.52 265.39 329.02 255.62 336.63 250.3C342.89 245.93 350.95 245.12 358.58 245.3C364.13 245.46 373.72 244.13 378.79 246.3C382.8 248.06 385.12 254.72 385.87 258.65Z" fill="#FBBEBE"/>
<path d="M120.44 353.01C117.11 351.74 113.44 352.2 109.87 352.68C98.38 354.25 86.72 355.86 76.07 360.45C71.07 362.59 66.31 365.45 62.93 369.66C59.93 373.45 58.18 378.09 56.52 382.66L52.68 393.18C51.22 397.18 49.74 401.26 49.33 405.51C48.13 418.1 56.74 429.97 67.57 436.51C78.4 443.05 91.15 445.38 103.57 447.82C115.99 450.26 128.46 452.96 140.83 455.82C146.6 457.317 152.453 458.469 158.36 459.27C171.6 460.77 185.44 458.56 198.02 462.94C203.02 464.69 207.93 467.29 213.12 468.5C216.567 469.225 220.053 469.756 223.56 470.09L247.37 472.81C252.212 473.458 257.086 473.832 261.97 473.93C272.37 473.93 282.6 471.47 292.7 469.01C293.774 468.822 294.796 468.409 295.7 467.8C297.3 466.54 297.65 464.31 297.88 462.29C298.9 453.35 299.793 444.4 300.56 435.44C300.8 432.53 300.98 429.38 299.39 426.93C297.39 423.93 293.49 422.99 289.93 422.41C274.834 419.941 259.542 418.879 244.25 419.24C238.44 413.43 228.86 413.4 221.25 410.24C218.45 408.954 215.741 407.481 213.14 405.83C199.527 397.888 184.315 393.081 168.61 391.76C165.534 391.666 162.479 391.23 159.5 390.46C153.61 388.63 148.24 383.65 142.19 384.87C141.44 382.8 140.92 380.03 139.19 378.61C138.33 377.88 137.27 377.39 136.48 376.61C134.81 374.92 134.66 372.26 134.91 369.9C135.16 367.54 135.72 365.12 135.11 362.82C134.856 361.949 134.483 361.118 134 360.35C131 355.17 126.47 352.51 120.44 353.01Z" fill="#464353"/>
<path opacity="0.05" d="M120.44 353.01C117.11 351.74 113.44 352.2 109.87 352.68C98.38 354.25 86.72 355.86 76.07 360.45C71.07 362.59 66.31 365.45 62.93 369.66C59.93 373.45 58.18 378.09 56.52 382.66L52.68 393.18C51.22 397.18 49.74 401.26 49.33 405.51C48.13 418.1 56.74 429.97 67.57 436.51C78.4 443.05 91.15 445.38 103.57 447.82C115.99 450.26 128.46 452.96 140.83 455.82C146.6 457.317 152.453 458.469 158.36 459.27C171.6 460.77 185.44 458.56 198.02 462.94C203.02 464.69 207.93 467.29 213.12 468.5C216.567 469.225 220.053 469.756 223.56 470.09L247.37 472.81C252.212 473.458 257.086 473.832 261.97 473.93C272.37 473.93 282.6 471.47 292.7 469.01C293.774 468.822 294.796 468.409 295.7 467.8C297.3 466.54 297.65 464.31 297.88 462.29C298.9 453.35 299.793 444.4 300.56 435.44C300.8 432.53 300.98 429.38 299.39 426.93C297.39 423.93 293.49 422.99 289.93 422.41C274.834 419.941 259.542 418.879 244.25 419.24C238.44 413.43 228.86 413.4 221.25 410.24C218.45 408.954 215.741 407.481 213.14 405.83C199.527 397.888 184.315 393.081 168.61 391.76C165.534 391.666 162.479 391.23 159.5 390.46C153.61 388.63 148.24 383.65 142.19 384.87C141.44 382.8 140.92 380.03 139.19 378.61C138.33 377.88 137.27 377.39 136.48 376.61C134.81 374.92 134.66 372.26 134.91 369.9C135.16 367.54 135.72 365.12 135.11 362.82C134.856 361.949 134.483 361.118 134 360.35C131 355.17 126.47 352.51 120.44 353.01Z" fill="black"/>
<path d="M317.01 468.72C323.2 475.89 328.65 478.45 338.34 478.22C344.3 478.08 350.253 477.77 356.2 477.29C360.265 476.851 364.352 476.66 368.44 476.72C380.78 477.2 392.69 482.85 405 481.86C406.82 481.717 408.62 481.382 410.37 480.86C413.163 480.091 415.686 478.56 417.66 476.44C420.02 473.77 421.15 470.23 421.8 466.73C425.09 448.79 416.07 429.25 400.28 420.12C398.22 418.789 395.878 417.957 393.44 417.69C391.049 417.68 388.686 418.199 386.52 419.21L386.37 419.27C379.955 421.91 374.129 425.798 369.23 430.71C368.487 431.561 367.6 432.275 366.61 432.82C365.622 433.193 364.576 433.39 363.52 433.4L350.38 434.23C348.154 434.296 345.941 434.602 343.78 435.14C341.397 435.972 339.078 436.974 336.84 438.14C329.77 441.3 321.93 442.14 314.29 443.36C313.554 443.401 312.851 443.682 312.29 444.16C311.985 444.539 311.773 444.984 311.67 445.46C310.596 449.479 310.522 453.699 311.452 457.753C312.383 461.807 314.291 465.572 317.01 468.72V468.72Z" fill="#3F3D56"/>
<path opacity="0.1" d="M386.37 419.28C391.468 424.148 395.891 429.677 399.52 435.72C405.344 445.693 409.003 456.78 410.26 468.26C410.737 472.448 410.773 476.674 410.37 480.87C413.163 480.101 415.686 478.57 417.66 476.45C420.02 473.78 421.15 470.24 421.8 466.74C425.09 448.8 416.07 429.26 400.28 420.13C398.22 418.799 395.878 417.967 393.44 417.7C391.049 417.69 388.686 418.209 386.52 419.22L386.37 419.28Z" fill="black"/>
<path d="M131.88 444.16C124.53 443.96 116.28 443.59 110.88 448.54C105.73 453.22 105.05 460.94 104.71 467.89L104.32 475.96C104.2 478.42 104.1 480.96 105.09 483.24C106.85 487.24 111.68 489.17 116.09 488.94C120.5 488.71 124.55 486.78 128.58 485.04C139.521 480.327 150.913 476.738 162.58 474.33C162.2 468.75 161.567 463.197 160.68 457.67C160.07 453.84 159.97 447.43 157.41 444.25C154.7 440.89 151.17 442.71 147.49 443.33C142.326 444.118 137.098 444.396 131.88 444.16V444.16Z" fill="#FBBEBE"/>
<path d="M326.12 363.07C326.12 364.07 327.69 363.07 327.83 362C328.93 353.91 335.35 347.24 342.83 344C350.31 340.76 358.83 340.59 366.93 341.36C379.18 342.52 392.93 347.21 397.41 358.66C398.47 361.34 398.95 364.24 400.25 366.81C401.69 369.63 404.04 371.88 405.6 374.62C408.29 379.36 408.4 385.17 407.43 390.53C404.82 404.83 395.04 417.06 383.19 425.53C371.34 434 357.49 439.06 343.68 443.62C307.163 455.663 269.698 464.612 231.68 470.37C225.52 471.3 219.3 472.16 213.4 474.14C208.12 475.91 203.18 478.56 198.02 480.64C186.02 485.46 173.11 487.18 160.32 488.87C158.14 489.15 155.64 489.35 154.03 487.87C151.95 485.94 152.64 482.58 153.23 479.81C155.401 469.278 153.58 458.315 148.12 449.05C145.98 445.45 143.2 441.76 143.6 437.59C144.08 432.73 148.92 429.29 153.74 428.51C158.56 427.73 163.46 428.88 168.3 429.51C169.97 429.73 171.79 429.87 173.25 429.02C173.969 428.534 174.622 427.956 175.19 427.3C178.524 424.084 182.792 422.006 187.38 421.364C191.968 420.723 196.642 421.551 200.73 423.73C202.52 424.73 205.23 422.5 207.09 421.66L228.12 412.14C252.28 401.21 276.56 390.23 302.12 383.31C304.159 382.909 306.098 382.103 307.82 380.94C309.09 379.94 310 378.58 311.17 377.47C313.72 375.06 317.27 374.1 320.33 372.39C323.39 370.68 326.82 366.5 326.12 363.07Z" fill="#464353"/>
<path d="M1.90998 493.76C5.26998 499.99 11.79 503.87 18.79 505.47C20.5467 505.866 22.3325 506.121 24.13 506.23C32.98 506.78 41.72 504.33 50.25 501.91L61.83 498.65C63.8208 498.023 65.8616 497.568 67.93 497.29C70.7459 497.102 73.5736 497.199 76.37 497.58C90.0563 498.853 103.853 498.234 117.37 495.74C118.501 495.618 119.587 495.231 120.54 494.61C121.375 493.792 122.116 492.883 122.75 491.9C125.9 488.11 129.29 485.9 125.56 480.9C123.41 478 119.42 476.55 117.75 473.22C116.08 469.89 117.15 465.16 118.14 461.72C119.49 456.97 123.93 454.92 125.52 450.56C126.71 447.27 124.71 443.45 121.7 441.66C118.69 439.87 114.97 439.73 111.5 440.19C108.03 440.65 104.63 441.63 101.14 441.9C90.88 442.72 80.39 437.43 70.54 440.41C68.37 441.07 66.32 442.12 64.12 442.7C59.831 443.659 55.3505 443.272 51.29 441.59C49.85 441.05 48.44 440.4 47.04 439.76C44.3401 438.354 41.4647 437.315 38.49 436.67C28.88 435.02 19.97 441.67 12.72 448.16C10.2312 450.226 8.02857 452.613 6.16999 455.26C4.16999 458.38 3.10999 462.01 2.16999 465.59C-0.48001 474.84 -2.67002 485.26 1.90998 493.76Z" fill="#3F3D56"/>
<path opacity="0.1" d="M1.90997 493.76C5.26997 499.99 11.79 503.87 18.79 505.47C16.067 500.18 14.8396 494.246 15.24 488.31C15.84 478.8 20.02 469.84 25.35 461.94C28.629 457.077 32.3588 452.534 36.49 448.37C39.67 445.17 43.58 442.63 47 439.7C44.3001 438.294 41.4247 437.255 38.45 436.61C28.84 434.96 19.93 441.61 12.68 448.1C10.1913 450.166 7.98859 452.553 6.13 455.2C4.13 458.32 3.07 461.95 2.13 465.53C-0.479995 474.84 -2.67003 485.26 1.90997 493.76Z" fill="black"/>
<path d="M369.12 185.26C370.094 186.28 370.85 187.488 371.34 188.81C379.423 207.027 384.198 226.539 385.44 246.43C385.418 247.4 385.642 248.36 386.09 249.22C386.532 249.792 387.024 250.325 387.56 250.81C388.047 251.387 388.41 252.058 388.627 252.781C388.845 253.504 388.911 254.264 388.823 255.014C388.735 255.763 388.494 256.487 388.115 257.14C387.736 257.793 387.227 258.361 386.62 258.81C384.97 255.7 381.02 254.69 377.51 254.42C360.7 253.09 344.28 260.91 327.42 260.32C328.61 256.21 330.32 252.26 331.29 248.1C335.58 229.63 324.88 209.52 331.44 191.73C332.75 188.17 334.94 184.67 338.39 183.11C339.818 182.533 341.313 182.137 342.84 181.93C347.1 181.16 355.58 177.87 359.7 179.19C361.22 179.68 361.82 181.11 363.08 181.97C364.99 183.2 367.53 183.65 369.12 185.26Z" fill="#00B0FF"/>
<path d="M118.63 221.66H325.69C330.092 221.66 333.66 225.228 333.66 229.63V355.69C333.66 360.092 330.092 363.66 325.69 363.66H118.63C114.228 363.66 110.66 360.092 110.66 355.69V229.63C110.66 225.228 114.228 221.66 118.63 221.66Z" fill="#3F3D56"/>
<path d="M222.66 298.66C219.346 298.66 216.66 295.974 216.66 292.66C216.66 289.346 219.346 286.66 222.66 286.66C225.974 286.66 228.66 289.346 228.66 292.66C228.66 295.974 225.974 298.66 222.66 298.66Z" fill="white"/>
<path d="M303.94 8.50001C307.3 10.93 309.6 14.42 311.94 17.77C316.25 23.96 321.13 30.14 328.02 33.59C330.63 34.9 333.61 35.89 335.34 38.17C336.367 39.7119 337.033 41.4653 337.29 43.3C338.61 49.7512 339.3 56.3154 339.35 62.9C339.35 66.18 339.21 69.56 337.76 72.54C336.39 75.34 333.92 77.71 333.41 80.76C333.02 83.14 333.9 85.51 334.21 87.9C334.52 90.29 333.98 93.12 331.77 94.26C330.579 94.7079 329.336 95.0004 328.07 95.13C321.42 96.61 319.19 104.41 318.18 110.86C315.92 110.73 314.9 108.14 314.43 106.03L307.5 75.22C306.75 71.88 305.5 68.01 302.17 66.84C299.94 66.07 297.5 66.79 295.17 66.99C286.02 67.74 278.28 60.67 269.33 58.72C266.465 58.1418 263.536 57.9468 260.62 58.14C253.56 58.49 245.35 61.39 243.85 67.98C243.6 69.05 243.45 70.33 242.45 70.86C241.45 71.39 240.4 70.94 239.35 70.86C234.87 70.41 232.23 75.45 230.94 79.57L226.24 94.57C225.54 96.84 224.36 99.51 221.9 99.8C219.63 100.08 217.7 97.93 217.36 95.8C217.02 93.67 217.76 91.46 218.25 89.32C220.46 79.47 217.08 69.39 215.02 59.52C212.96 49.65 212.59 38.31 219.5 30.71C222.01 27.96 225.31 25.91 227.65 23.01C229.83 20.29 231.06 16.95 233.32 14.28C239.57 6.91 255.6 1.22 265.43 0.280005C276.66 -0.939995 294.86 1.91001 303.94 8.50001Z" fill="#3F3D56"/>
<g opacity="0.1">
<path opacity="0.1" d="M221.86 92.8C224.32 92.5 225.5 89.8 226.2 87.57C227.767 82.5634 229.333 77.5634 230.9 72.57C232.19 68.44 234.83 63.4 239.31 63.86C240.36 63.97 241.49 64.38 242.41 63.86C243.33 63.34 243.56 62.05 243.81 60.98C245.31 54.38 253.52 51.49 260.58 51.14C263.496 50.9485 266.424 51.1402 269.29 51.71C278.24 53.71 285.98 60.71 295.13 59.98C297.49 59.79 299.93 59.07 302.13 59.84C305.5 61 306.71 64.84 307.46 68.22L314.39 99.02C314.86 101.14 315.88 103.73 318.14 103.85C319.14 97.41 321.38 89.61 328.03 88.13C329.294 87.9907 330.536 87.6986 331.73 87.26C332.6 86.7848 333.281 86.0261 333.66 85.11C333.84 86.04 334.05 86.97 334.17 87.9C334.47 90.28 333.94 93.12 331.73 94.26C330.539 94.7079 329.296 95.0004 328.03 95.13C321.38 96.61 319.15 104.41 318.14 110.86C315.88 110.73 314.86 108.14 314.39 106.03L307.46 75.22C306.71 71.88 305.46 68.01 302.13 66.84C299.9 66.07 297.46 66.79 295.13 66.99C285.98 67.74 278.24 60.67 269.29 58.72C266.425 58.1418 263.496 57.9468 260.58 58.14C253.52 58.49 245.31 61.39 243.81 67.98C243.56 69.05 243.41 70.33 242.41 70.86C241.41 71.39 240.36 70.94 239.31 70.86C234.83 70.41 232.19 75.45 230.9 79.57C229.34 84.5767 227.773 89.5767 226.2 94.57C225.5 96.84 224.32 99.51 221.86 99.8C219.59 100.08 217.66 97.93 217.32 95.8C217.166 94.0077 217.37 92.2028 217.92 90.49C218.277 91.2199 218.841 91.8283 219.542 92.2392C220.242 92.6501 221.049 92.8451 221.86 92.8V92.8Z" fill="black"/>
<path opacity="0.1" d="M333.4 73.76C333.91 70.71 336.4 68.34 337.75 65.54C338.618 63.6515 339.12 61.6155 339.23 59.54C339.23 60.66 339.33 61.78 339.34 62.91C339.34 66.19 339.2 69.57 337.75 72.55C336.64 74.82 334.81 76.82 333.89 79.13C333.405 77.3841 333.239 75.5649 333.4 73.76V73.76Z" fill="black"/>
<path opacity="0.1" d="M214.98 52.48C216.8 61.2 219.64 70.08 218.76 78.82C218.19 72.37 216.31 65.88 214.98 59.48C213.871 54.6199 213.48 49.6235 213.82 44.65C214.037 47.2823 214.425 49.8978 214.98 52.48Z" fill="black"/>
</g>
<g opacity="0.1">
<path opacity="0.1" d="M364.88 112.36C364.88 112.36 439.65 80.92 449.45 137.65C449.45 137.65 454.56 146.49 447.45 153.79C447.45 153.79 445.92 149.87 438.7 153.92C436.121 155.346 433.382 156.461 430.54 157.24C426.702 158.299 422.624 158.081 418.92 156.62V156.62C418.92 156.62 394.33 155.29 373.65 123.12C373.65 123.12 364.78 117.64 364.34 115.58L379.16 116.58C379.16 116.58 378.02 127.43 384.16 133.94C384.16 133.94 378.72 117.1 381.33 116.63C381.86 116.53 389.16 117.49 389.16 117.49C389.16 117.49 387.27 136.36 397.16 146.12C397.16 146.12 387.98 126.93 391.97 117.83L402.91 119.94C402.91 119.94 399.91 139.79 410.73 151.33C410.73 151.33 401.83 130.93 405.27 120.57L415.74 124.09C415.74 124.09 413.22 143.5 422.27 153.09C422.27 153.09 414.37 128.48 418.09 125.09C418.09 125.09 427.51 128.91 429.52 131.09C429.52 131.09 428.03 145.09 433.78 150.14C433.78 150.14 430.25 133.14 432 132.44C432 132.44 442.94 140.68 446.28 147.79C446.28 147.79 442.12 136.93 433.37 130.79C433.37 130.79 440.72 129.55 446.37 132.62C446.37 132.62 442.59 125.41 430.72 128.83C430.72 128.83 421.93 122.74 420.17 122.83C420.17 122.83 431.4 117.83 439.51 118.45C439.51 118.45 430.81 113.45 417.43 121.8L406.98 118.03C406.98 118.03 421.48 110.6 428.74 110.63C428.74 110.63 419.08 106.89 404.27 117.29L393.57 115.11C393.57 115.11 405.57 107.76 413.66 106.05C413.66 106.05 403.96 104.51 390.48 114.6L383.17 113.99C383.17 113.99 392.02 108.77 394.7 107.5C397.38 106.23 397.26 105.41 397.26 105.41C390.9 106.499 384.967 109.331 380.12 113.59C380.12 113.59 364.94 113.29 364.88 112.36Z" fill="#00B0FF"/>
</g>
<g opacity="0.1">
<path opacity="0.1" d="M367.64 56C367.64 56 394.12 -5.27001 432.27 22.83C432.27 22.83 440.33 25.17 440.27 33.53C440.27 33.53 437.13 32.07 435.14 38.6C434.41 40.9163 433.403 43.1358 432.14 45.21C430.471 48.0292 427.924 50.2244 424.89 51.46C424.89 51.46 409.52 64.68 378.89 57.35C378.89 57.35 370.49 59.14 369.06 58.18L378.42 50.31C378.42 50.31 383.93 57.41 391.31 57.75C391.31 57.75 378.48 50.85 379.76 49.08C380.02 48.72 384.91 45.14 384.91 45.14C384.91 45.14 394.53 57.42 405.91 57.61C405.91 57.61 389.52 51.43 386.71 43.76L394.41 38.76C394.41 38.76 404.12 52.27 417.12 52.97C417.12 52.97 400.21 45.92 396.35 37.8L404.58 33.93C404.58 33.93 414.14 46.93 424.95 47.42C424.95 47.42 406.23 37.3 406.52 33.17C406.52 33.17 414.29 30.07 416.76 30.25C416.76 30.25 423.83 39.4 430.14 39.14C430.14 39.14 418.35 31.05 418.99 29.64C418.99 29.64 430.19 28.3 436.22 30.64C436.22 30.64 427.56 26.56 418.87 27.9C418.87 27.9 422.53 22.97 427.62 21.6C427.62 21.6 421.26 19.47 416.16 28.25C416.16 28.25 407.48 29.65 406.46 30.69C406.46 30.69 410.27 21.3 415.46 17.07C415.46 17.07 407.46 19.07 404.26 31.64L395.9 35.35C395.9 35.35 400.28 22.67 404.62 18.56C404.62 18.56 396.75 21.84 393.87 36.46L386.27 41.25C386.27 41.25 389.21 30.05 393.04 24.42C393.04 24.42 386.4 29.04 384.15 42.71L379.45 46.51C379.45 46.51 381.74 38.37 382.61 36.09C383.48 33.81 382.94 33.39 382.94 33.39C379.781 37.6779 377.88 42.7615 377.45 48.07C377.45 48.07 368.21 56.51 367.64 56Z" fill="#00B0FF"/>
</g>
</g>
<defs>
<linearGradient id="paint0_linear" x1="211.16" y1="505.66" x2="211.16" y2="-5.54003" gradientUnits="userSpaceOnUse">
<stop stop-color="#808080" stop-opacity="0.25"/>
<stop offset="0.54" stop-color="#808080" stop-opacity="0.12"/>
<stop offset="1" stop-color="#808080" stop-opacity="0.1"/>
</linearGradient>
<clipPath id="clip0">
<rect width="1038.23" height="693.31" fill="white" transform="matrix(-1 0 0 1 451.23 -187)"/>
</clipPath>
</defs>
</svg>
